<svg id="Layer_1" data-name="Layer 1" xmlns="http://www.w3.org/2000/svg" viewBox="0 0 534.49 243.96"><defs><style>.cls-1{fill:#ed1c24;}.cls-2{fill:#fff;}</style></defs><path class="cls-1" d="M36,162.14c-5.52,2.17,138.76-45,241.38,53.74,0,0-66-123-241.38-53.74"/><path class="cls-2" d="M481.1,74.07a10.44,10.44,0,1,1,10.43-10.44A10.46,10.46,0,0,1,481.1,74.07m0-19.77h0a9.33,9.33,0,1,0,9.31,9.33,9.33,9.33,0,0,0-9.31-9.33"/><path class="cls-2" d="M476.35,69.21V58.06h4.75a8,8,0,0,1,2.59.3,2.54,2.54,0,0,1,1.31,1,3.27,3.27,0,0,1,.48,1.77,3,3,0,0,1-.74,2.08,3.54,3.54,0,0,1-2.21,1,5.27,5.27,0,0,1,1.21.93A10.86,10.86,0,0,1,485,67l1.37,2.17h-2.7l-1.61-2.44a15.54,15.54,0,0,0-1.2-1.63,1.68,1.68,0,0,0-.69-.46,3.29,3.29,0,0,0-1.11-.13h-.47v4.66Zm2.26-6.44h1.66a7.77,7.77,0,0,0,2.05-.15,1.09,1.09,0,0,0,.62-.46,1.53,1.53,0,0,0,.22-.83,1.43,1.43,0,0,0-.29-.92A1.39,1.39,0,0,0,482,60c-.18,0-.72,0-1.65,0h-1.75Z"/><path class="cls-2" d="M78.39,120h26.1c0,3,.86,5.28,2.57,6.83a8.41,8.41,0,0,0,3.19,1.43,18.68,18.68,0,0,0,4.27.44c3.71-.16,6.08-1,7.18-2.64s1.57-2.9,1.45-3.92c-.08-2.52-1.72-4.2-4.92-5.07a116.75,116.75,0,0,0-12.88-2.49,45.7,45.7,0,0,1-7.49-1.76,20.51,20.51,0,0,1-8.61-5.43q-3.89-4-4.12-11.93c.11-7,2-12.52,5.6-16.48a29.31,29.31,0,0,1,13.85-8.33,62.91,62.91,0,0,1,17.56-2.29,69,69,0,0,1,16,1.64,25.44,25.44,0,0,1,12.94,6.81q5,5.07,4.45,14.92H130.19a8.61,8.61,0,0,0-.31-3.56,4.86,4.86,0,0,0-1.71-2.27A8.66,8.66,0,0,0,125,84.41a15.81,15.81,0,0,0-3.48-.4,11.07,11.07,0,0,0-5.48,1.35A5.18,5.18,0,0,0,113.53,90a4.62,4.62,0,0,0,1.83,4.1A9.71,9.71,0,0,0,120,95.58q15.81,1.83,23.68,6.71t7.87,16.27c-.12,8.37-3.36,14.94-9.66,19.73a226.87,226.87,0,0,0-49.54,4.29,26,26,0,0,1-8.6-6c-3.6-3.77-5.4-9.31-5.35-16.65"/><path class="cls-2" d="M156.7,139.27l14-69.07h27l-2.4,11.55a35.13,35.13,0,0,1,10.06-9.64,22.26,22.26,0,0,1,11.45-3.77,53.27,53.27,0,0,1,5.72.26,18.89,18.89,0,0,1,4.13.9l-5.22,24.92A28.12,28.12,0,0,0,216.18,93a32.2,32.2,0,0,0-5.41-.45c-5.8-.11-10.39,1.39-13.69,4.51s-5.7,8.51-7.24,16.17L183.5,144.2a180.61,180.61,0,0,0-26.8-4.93"/><path class="cls-2" d="M216.66,144.2h26.85l14.67-74H231.32ZM263.6,42.38H236.75l-3.94,19.81h26.86Z"/><path class="cls-2" d="M300.63,70.2H272.48l-12.66,59.62q-1,5.35-1.8,9.05a11,11,0,0,1-2.6,5.58q-1.83,1.92-6,1.92c-.92,0-1.84,0-2.73-.12a22.73,22.73,0,0,1-2.83-.46l-4.69,22c2.2.12,4.39.24,6.55.31s4.33.1,6.53.1q15.69.16,23-5.44c4.88-3.77,8.15-10.23,9.88-19.36Z"/><path class="cls-2" d="M326.85,123a7.37,7.37,0,0,1,2.78-6,11.78,11.78,0,0,1,6.26-2.27,70.45,70.45,0,0,0,7.62-.94,28,28,0,0,0,7.19-2.33c-.79,5.54-2.32,9.92-4.59,13.1s-5.73,4.81-10.36,4.87a12.36,12.36,0,0,1-6.15-1.28c-1.73-.92-2.66-2.61-2.75-5.15m8-30.38h0a9.59,9.59,0,0,1,4-5.88A13.46,13.46,0,0,1,346,85,12.13,12.13,0,0,1,352,86.3c1.75.93,2.7,2.63,2.78,5.15-.1,3-1.28,5-3.55,6.14a20.47,20.47,0,0,1-8.06,2c-3.15.19-6.09.32-8.84.44-10.63.57-19.16,2.73-25.53,6.47s-9.64,10.38-9.8,19.93c.21,7,2.57,12,7.12,15.12s10.06,4.6,16.54,4.53a36.27,36.27,0,0,0,12.47-2.23,23.71,23.71,0,0,0,10.07-6.74h.28a16.76,16.76,0,0,0,.19,3.61,19.38,19.38,0,0,0,.82,3.5h27.29c-.33-1-.56-1.7-.63-1.95a2.94,2.94,0,0,1-.19-1.12c0-.49-.13-1.66-.3-3.46a59.5,59.5,0,0,1,1.4-8.19c.87-4.12,1.88-8.81,3-14.12s2.17-10.43,3.07-15.39a82.52,82.52,0,0,0,1.37-12c-.19-5.9-2.29-10.27-6.26-13.08a32.42,32.42,0,0,0-14.14-5.49A88,88,0,0,0,346,68.34c-9.12-.2-17,1.36-23.73,4.75S311.05,83,308.71,92.58Z"/><path class="cls-2" d="M384,144.2h28.26L420.55,105A24.26,24.26,0,0,1,424.69,95c2-2.68,5.18-4.05,9.57-4.17A8.87,8.87,0,0,1,440,92.66,6.67,6.67,0,0,1,442.26,98a29.94,29.94,0,0,1-.82,5.65c-.52,2.23-1,4.43-1.44,6.62l-7.3,33.93H461l9-41.79c.61-2.75,1.06-5.36,1.44-7.85A44.13,44.13,0,0,0,472,88.3c-.19-7.2-2.57-12.34-7.21-15.42s-10.22-4.61-16.92-4.54A28.84,28.84,0,0,0,435,71.45a31.15,31.15,0,0,0-10.13,8.17h-.31l2.14-9.42H399.44Z"/></svg>